<svg width="153" height="38" viewBox="0 0 153 38" fill="none" xmlns="http://www.w3.org/2000/svg">
<path d="M19.7865 10.9774V21.0448L16.6144 23.7065L8.55229 30.4722V10.9774L0 0.784302H11.2342L19.7865 10.9774Z" fill="white"/>
<path d="M6.19848 13.0273V32.4452L0 37.647V18.2292L6.19848 13.0273Z" fill="white"/>
<path d="M56.9302 0V13.029L55.166 11.2648H46.8728L45.1231 13.0145L42.231 15.9067V22.0018L46.8873 26.6581H55.1877L56.9374 24.9084V26.6581H59.8295V0H56.9302ZM56.9302 20.8233L53.9874 23.766H48.0803L45.1231 20.8088V17.1141L48.0658 14.1714H53.973L56.9302 17.1286V20.8233Z" fill="white"/>
<path d="M111.222 33.9824V24.9011L112.986 26.6653H121.287L123.037 24.9156L125.929 22.0235V15.9283L121.272 11.272H112.972L111.222 13.0217V11.272H108.33V33.9824H111.222ZM111.222 17.1069L114.165 14.1641H120.072L123.029 17.1213V20.816L120.087 23.7587H114.179L111.222 20.8015V17.1069Z" fill="white"/>
<path d="M48.0658 14.1642L45.123 17.1069L48.0658 14.1642Z" fill="white"/>
<path d="M65.9751 11.272H63.083V26.6581H65.9751V11.272Z" fill="white"/>
<path d="M131.814 14.3738H128.922V26.6509H131.814V14.3738Z" fill="white"/>
<path d="M145.284 20.6858L151.163 26.658H147.077L143.245 22.732L143.195 22.6814L139.225 26.658H135.133L141.149 20.6424L133.456 12.9422H137.541L143.195 18.5963L145.957 15.8343H148.849V12.9422H152.941L145.241 20.6424L145.284 20.6858Z" fill="white"/>
<path d="M131.814 10.05H128.922V12.9421H131.814V10.05Z" fill="#5E66F2"/>
<path d="M73.8634 11.272V14.1641H65.9751L68.8672 11.272H73.8634Z" fill="white"/>
<path d="M86.4735 14.1641V26.6581H83.5813V20.7799H79.0624L76.1197 23.7298V26.6581H73.2275V22.5296L76.1197 19.6375L77.8622 17.8877H83.5813V14.1641H75.6931V11.272H83.5813L86.4735 14.1641Z" fill="white"/>
<path d="M100.796 11.272L98.9166 17.49L97.4055 22.4862L96.1474 26.6581H93.0094L88.3604 11.272H91.3826L94.5784 21.8499L95.8943 17.49L97.4055 12.4939L97.7742 11.272H100.796Z" fill="white"/>
<path d="M106.45 11.272L101.801 26.6581H98.6633L97.4053 22.4862L98.9164 17.4901L100.232 21.8499L103.428 11.272H106.45Z" fill="white"/>
</svg>
