<svg width="91" height="68" viewBox="0 0 91 68" fill="none" xmlns="http://www.w3.org/2000/svg">
<path d="M79.25 5.875C80.7418 5.875 82.1726 6.46763 83.2275 7.52252C84.2824 8.57742 84.875 10.0082 84.875 11.5V56.5C84.875 57.9918 84.2824 59.4226 83.2275 60.4775C82.1726 61.5324 80.7418 62.125 79.25 62.125H11.75C10.2582 62.125 8.82742 61.5324 7.77252 60.4775C6.71763 59.4226 6.125 57.9918 6.125 56.5V11.5C6.125 10.0082 6.71763 8.57742 7.77252 7.52252C8.82742 6.46763 10.2582 5.875 11.75 5.875H79.25ZM11.75 0.25C8.76631 0.25 5.90483 1.43526 3.79505 3.54505C1.68526 5.65483 0.5 8.51631 0.5 11.5L0.5 56.5C0.5 59.4837 1.68526 62.3452 3.79505 64.4549C5.90483 66.5647 8.76631 67.75 11.75 67.75H79.25C82.2337 67.75 85.0952 66.5647 87.2049 64.4549C89.3147 62.3452 90.5 59.4837 90.5 56.5V11.5C90.5 8.51631 89.3147 5.65483 87.2049 3.54505C85.0952 1.43526 82.2337 0.25 79.25 0.25H11.75Z" fill="white"/>
<path d="M25.8575 50.875H33.8956L45.0894 17.1306H37.6813L30.1831 43.6075H29.8625L22.2969 17.1306H14.5625L25.8575 50.875ZM61.7844 17.1306H48.3125V50.875H54.9106V38.2919H60.8956L66.8019 50.875H74.2663L67.4937 37.2794C70.5594 36.0981 73.625 32.7569 73.625 27.8125C73.625 21.3606 69.2769 17.125 61.7844 17.125V17.1306ZM54.9106 33.2744V22.3731H60.8169C64.3606 22.3731 66.7231 24.325 66.7231 27.9362C66.7231 31.4969 64.4281 33.28 60.7213 33.28H54.9106V33.2744Z" fill="white"/>
</svg>
