<svg width="184" height="46" viewBox="0 0 184 46" fill="none" xmlns="http://www.w3.org/2000/svg">
<path d="M23.7438 13.4084V25.4894L19.9372 28.6834L10.2627 36.8022V13.4084L0 1.17676H13.4811L23.7438 13.4084Z" fill="white"/>
<path d="M7.43818 15.8682V39.1696L0 45.4118V22.1104L7.43818 15.8682Z" fill="white"/>
<path d="M68.3163 0.235352V15.8702L66.1993 13.7531H56.2475L54.1478 15.8528L50.6772 19.3233V26.6375L56.2648 32.2251H66.2253L68.325 30.1254V32.2251H71.7955V0.235352H68.3163ZM68.3163 25.2233L64.785 28.7545H57.6964L54.1478 25.2059V20.7723L57.6791 17.241H64.7677L68.3163 20.7897V25.2233Z" fill="white"/>
<path d="M133.467 41.0142V30.1167L135.584 32.2337H145.544L147.644 30.134L151.114 26.6635V19.3493L145.527 13.7617H135.566L133.467 15.8614V13.7617H129.996V41.0142H133.467ZM133.467 20.7635L136.998 17.2323H144.087L147.635 20.7809V25.2145L144.104 28.7458H137.015L133.467 25.1972V20.7635Z" fill="white"/>
<path d="M57.6787 17.2319L54.1475 20.7632L57.6787 17.2319Z" fill="white"/>
<path d="M79.1703 13.7617H75.6997V32.225H79.1703V13.7617Z" fill="white"/>
<path d="M158.178 17.4839H154.707V32.2163H158.178V17.4839Z" fill="white"/>
<path d="M174.341 25.058L181.395 32.2247H176.493L171.894 27.5134L171.834 27.4527L167.07 32.2247H162.159L169.378 25.006L160.146 15.7656H165.049L171.834 22.5505L175.148 19.2362H178.618V15.7656H183.529L174.289 25.006L174.341 25.058Z" fill="white"/>
<path d="M158.178 12.2954H154.707V15.766H158.178V12.2954Z" fill="#5E66F2"/>
<path d="M88.6358 13.7617V17.2323H79.1699L82.6405 13.7617H88.6358Z" fill="white"/>
<path d="M103.768 17.2323V32.225H100.298V25.1711H94.8749L91.3436 28.7111V32.225H87.873V27.2708L91.3436 23.8003L93.4346 21.7006H100.298V17.2323H90.8317V13.7617H100.298L103.768 17.2323Z" fill="white"/>
<path d="M120.956 13.7617L118.7 21.2234L116.886 27.2188L115.377 32.225H111.611L106.032 13.7617H109.659L113.494 26.4552L115.073 21.2234L116.886 15.228L117.329 13.7617H120.956Z" fill="white"/>
<path d="M127.74 13.7617L122.161 32.225H118.396L116.886 27.2188L118.7 21.2234L120.279 26.4552L124.114 13.7617H127.74Z" fill="white"/>
</svg>
