<svg width="1919" height="4216" viewBox="0 0 1919 4216" fill="none" xmlns="http://www.w3.org/2000/svg">
<path d="M-5 3466H145V3616H-5V3466Z" fill="#5C87DB"/>
<path d="M145 3466H295V3616H145V3466Z" fill="#262D3A"/>
<path d="M-5 3316H145V3466H-5V3316Z" fill="#262D3A"/>
<path d="M145 3316H295V3466H145V3316Z" fill="#5C87DB"/>
<path d="M295 3466H445V3616H295V3466Z" fill="#121212"/>
<path d="M445 4066H595V4216H445V4066Z" fill="#121212"/>
<path d="M295 3916H445V4066H295V3916Z" fill="#262D3A"/>
<path d="M-5 3766H145V3916H-5V3766Z" fill="#262D3A"/>
<path d="M145 3916H295V4066H145V3916Z" fill="#5C87DB"/>
<path d="M0 4066H150V4216H0V4066Z" fill="#262D3A"/>
<path d="M295 3766H445V3916H295V3766Z" fill="#5C87DB"/>
<path d="M145 3616H295V3766H145V3616Z" fill="#121212"/>
<path d="M-5 3616H145V3766H-5V3616Z" fill="#5C87DB"/>
<path d="M445 3466H595V3616H445V3466Z" fill="#5C87DB"/>
<path d="M595 3616H745V3766H595V3616Z" fill="#262D3A"/>
<path d="M745 3616H895V3766H745V3616Z" fill="#121212"/>
<path d="M145 3166H295V3316H145V3166Z" fill="#262D3A"/>
<path d="M295 3016H445V3166H295V3016Z" fill="#262D3A"/>
<path d="M295 3316H445V3466H295V3316Z" fill="#121212"/>
<path d="M445 3166H595V3316H445V3166Z" fill="#5C87DB"/>
<path d="M595 3016H745V3166H595V3016Z" fill="#121212"/>
<path d="M145 3016H295V3166H145V3016Z" fill="#121212"/>
<path d="M-5 3166H145V3316H-5V3166Z" fill="#5C87DB"/>
<path d="M-5 2866H145V3016H-5V2866Z" fill="#121212"/>
<path d="M1769 1H1919V151H1769V1Z" fill="#121212"/>
<path d="M1769 151H1919V295H1769V151Z" fill="#5C87DB"/>
<path d="M1619 1H1769V151H1619V1Z" fill="#121212"/>
<path d="M1619 151H1769V301H1619V151Z" fill="#121212"/>
<path d="M1769 295H1919V445H1769V295Z" fill="#262D3A"/>
<path d="M1769 445H1919V595H1769V445Z" fill="#5C87DB"/>
<path d="M1769 595H1919V745H1769V595Z" fill="#262D3A"/>
<path d="M1619 595H1769V745H1619V595Z" fill="#5C87DB"/>
<path d="M1469 595H1619V745H1469V595Z" fill="#121212"/>
<path d="M1469 745H1619V895H1469V745Z" fill="#5C87DB"/>
<path d="M1319 745H1469V895H1319V745Z" fill="#262D3A"/>
<path d="M1169 595H1319V745H1169V595Z" fill="#121212"/>
<path d="M1319 445H1469V595H1319V445Z" fill="#121212"/>
<path d="M1169 295H1319V445H1169V295Z" fill="#121212"/>
<path d="M1019 145H1169V295H1019V145Z" fill="#121212"/>
<path d="M869 -5H1019V145H869V-5Z" fill="#121212"/>
<path d="M869 1H1019V151H869V1Z" fill="#121212"/>
<path d="M1319 595H1469V745H1319V595Z" fill="#5C87DB"/>
<path d="M1469 1195H1619V1345H1469V1195Z" fill="#121212"/>
<path d="M1769 1343H1919V1493H1769V1343Z" fill="#5C87DB"/>
<path d="M1619 1493H1769V1643H1619V1493Z" fill="#5C87DB"/>
<path d="M1619 1343H1769V1493H1619V1343Z" fill="#262D3A"/>
<path d="M1769 1643H1919V1793H1769V1643Z" fill="#121212"/>
<path d="M1469 1493H1619V1643H1469V1493Z" fill="#121212"/>
<path d="M1619 1045H1769V1195H1619V1045Z" fill="#5C87DB"/>
<path d="M1469 895H1619V1045H1469V895Z" fill="#262D3A"/>
<path d="M1769 1195H1919V1345H1769V1195Z" fill="#262D3A"/>
<path d="M1769 745H1919V895H1769V745Z" fill="#121212"/>
<path d="M1319 1045H1469V1195H1319V1045Z" fill="#121212"/>
<path d="M1169 895H1319V1045H1169V895Z" fill="#5C87DB"/>
<path d="M1019 745H1169V895H1019V745Z" fill="#121212"/>
<path d="M869 895H1019V1045H869V895Z" fill="#121212"/>
<path d="M1319 895H1469V1045H1319V895Z" fill="#121212"/>
<path d="M1319 151H1469V295H1319V151Z" fill="#121212"/>
<path d="M1619 445H1769V595H1619V445Z" fill="#262D3A"/>
<path d="M1319 1H1469V151H1319V1Z" fill="#121212"/>
<path d="M1169 1H1319V151H1169V1Z" fill="#121212"/>
<path d="M1019 1H1169V151H1019V1Z" fill="#121212"/>
<path d="M1469 295H1619V445H1469V295Z" fill="#121212"/>
<path d="M1619 295H1769V445H1619V295Z" fill="#5C87DB"/>
<path d="M1469 1H1619V151H1469V1Z" fill="#121212"/>
<path d="M1469 151H1619V295H1469V151Z" fill="#5C87DB"/>
</svg>
