<svg width="38" height="38" viewBox="0 0 38 38" fill="none" xmlns="http://www.w3.org/2000/svg">
<path d="M30.875 0C32.8377 0 34.5158 0.696832 35.9095 2.09049C37.3032 3.48416 38 5.16233 38 7.125V30.875C38 32.8377 37.3032 34.5158 35.9095 35.9095C34.5158 37.3032 32.8377 38 30.875 38H26.224V23.2799H31.1471L31.8893 17.5404H26.224V13.8789C26.224 12.9553 26.4178 12.2626 26.8053 11.8008C27.1929 11.339 27.9475 11.1081 29.069 11.1081L32.0872 11.0833V5.96224C31.0482 5.8138 29.5803 5.73958 27.6836 5.73958C25.4405 5.73958 23.6469 6.39931 22.3027 7.71875C20.9586 9.03819 20.2865 10.9019 20.2865 13.3099V17.5404H15.3385V23.2799H20.2865V38H7.125C5.16233 38 3.48416 37.3032 2.09049 35.9095C0.696832 34.5158 0 32.8377 0 30.875V7.125C0 5.16233 0.696832 3.48416 2.09049 2.09049C3.48416 0.696832 5.16233 0 7.125 0H30.875Z" fill="#444553"/>
</svg>
