<svg width="38" height="38" viewBox="0 0 38 38" fill="none" xmlns="http://www.w3.org/2000/svg">
<path d="M24.8315 0H13.1667C2.52197 0 -0.00146484 2.52344 -0.00146484 13.1682V24.833C-0.00146484 35.4777 2.52197 38.0012 13.1667 38.0012H24.8315C35.4763 38.0012 37.9997 35.4777 37.9997 24.833V13.1682C37.9997 2.52344 35.4513 0 24.8315 0ZM30.6764 27.1082H27.9178C26.8728 27.1082 26.551 26.2794 24.6712 24.3746C23.0384 22.7917 22.3152 22.5815 21.9127 22.5815C21.3438 22.5815 21.1823 22.7418 21.1823 23.522V26.0146C21.1823 26.6831 20.9722 27.0845 19.2028 27.0845C16.2768 27.0845 13.0302 25.3151 10.7537 22.0186C7.32066 17.1879 6.38135 13.5696 6.38135 12.8214C6.38135 12.4189 6.54166 12.0424 7.31472 12.0424H10.0792C10.7787 12.0424 11.0447 12.3643 11.3166 13.1124C12.6834 17.0584 14.9598 20.5152 15.8992 20.5152C16.2459 20.5152 16.4062 20.3549 16.4062 19.4702V15.3947C16.3005 13.5149 15.3113 13.3534 15.3113 12.6861C15.3113 12.3642 15.5773 12.0424 16.0037 12.0424H20.3511C20.9389 12.0424 21.155 12.3643 21.155 13.0566V18.5547C21.155 19.1484 21.421 19.3586 21.5813 19.3586C21.9281 19.3586 22.225 19.1484 22.8674 18.5048C24.8529 16.2782 26.2755 12.8452 26.2755 12.8452C26.4608 12.4426 26.7826 12.0662 27.482 12.0662H30.2465C31.0754 12.0662 31.2607 12.4925 31.0754 13.0863C30.7287 14.6941 27.3455 19.4691 27.3455 19.4691C27.0545 19.9512 26.9429 20.1614 27.3455 20.6993C27.6423 21.1019 28.6078 21.9367 29.2502 22.6848C30.4318 24.0267 31.3402 25.1524 31.5825 25.9314C31.8544 26.7045 31.453 27.1071 30.6728 27.1071L30.6764 27.1082Z" fill="#444553"/>
</svg>
