<svg width="663" height="1135" viewBox="0 0 663 1135" fill="none" xmlns="http://www.w3.org/2000/svg">
<path d="M568.286 3.78754H663V98.4761H568.286V3.78754Z" fill="#121212"/>
<path d="M568.286 98.4761H663V189.377H568.286V98.4761Z" fill="#5C87DB"/>
<path d="M473.571 3.78754H568.286V98.4761H473.571V3.78754Z" fill="#121212"/>
<path d="M473.571 98.4761H568.286V193.165H473.571V98.4761Z" fill="#121212"/>
<path d="M568.286 189.377H663V284.066H568.286V189.377Z" fill="#262D3A"/>
<path d="M568.286 284.066H663V378.754H568.286V284.066Z" fill="#5C87DB"/>
<path d="M568.286 378.754H663V473.443H568.286V378.754Z" fill="#262D3A"/>
<path d="M473.571 378.754H568.286V473.443H473.571V378.754Z" fill="#5C87DB"/>
<path d="M378.857 378.754H473.571V473.443H378.857V378.754Z" fill="#121212"/>
<path d="M378.857 473.443H473.571V568.131H378.857V473.443Z" fill="#5C87DB"/>
<path d="M284.143 473.443H378.857V568.131H284.143V473.443Z" fill="#262D3A"/>
<path d="M189.429 378.754H284.143V473.443H189.429V378.754Z" fill="#121212"/>
<path d="M284.143 284.066H378.857V378.754H284.143V284.066Z" fill="#121212"/>
<path d="M189.429 189.377H284.143V284.066H189.429V189.377Z" fill="#121212"/>
<path d="M94.7143 94.6885H189.429V189.377H94.7143V94.6885Z" fill="#121212"/>
<path d="M0 0H94.7143V94.6885H0V0Z" fill="#121212"/>
<path d="M0 3.78754H94.7143V98.4761H0V3.78754Z" fill="#121212"/>
<path d="M284.143 378.754H378.857V473.443H284.143V378.754Z" fill="#5C87DB"/>
<path d="M378.857 757.508H473.571V852.197H378.857V757.508Z" fill="#121212"/>
<path d="M568.286 850.934H663V945.623H568.286V850.934Z" fill="#5C87DB"/>
<path d="M473.571 945.623H568.286V1040.31H473.571V945.623Z" fill="#5C87DB"/>
<path d="M473.571 850.934H568.286V945.623H473.571V850.934Z" fill="#262D3A"/>
<path d="M568.286 1040.31H663V1135H568.286V1040.31Z" fill="#121212"/>
<path d="M378.857 945.623H473.571V1040.31H378.857V945.623Z" fill="#121212"/>
<path d="M473.571 662.82H568.286V757.508H473.571V662.82Z" fill="#5C87DB"/>
<path d="M378.857 568.131H473.571V662.82H378.857V568.131Z" fill="#262D3A"/>
<path d="M568.286 757.508H663V852.197H568.286V757.508Z" fill="#262D3A"/>
<path d="M568.286 473.443H663V568.131H568.286V473.443Z" fill="#121212"/>
<path d="M284.143 662.82H378.857V757.508H284.143V662.82Z" fill="#121212"/>
<path d="M189.429 568.131H284.143V662.82H189.429V568.131Z" fill="#5C87DB"/>
<path d="M94.7143 473.443H189.429V568.131H94.7143V473.443Z" fill="#121212"/>
<path d="M0 568.131H94.7143V662.82H0V568.131Z" fill="#121212"/>
<path d="M284.143 568.131H378.857V662.82H284.143V568.131Z" fill="#121212"/>
<path d="M284.143 98.4761H378.857V189.377H284.143V98.4761Z" fill="#121212"/>
<path d="M473.571 284.066H568.286V378.754H473.571V284.066Z" fill="#262D3A"/>
<path d="M284.143 3.78754H378.857V98.4761H284.143V3.78754Z" fill="#121212"/>
<path d="M189.429 3.78754H284.143V98.4761H189.429V3.78754Z" fill="#121212"/>
<path d="M94.7143 3.78754H189.429V98.4761H94.7143V3.78754Z" fill="#121212"/>
<path d="M378.857 189.377H473.571V284.066H378.857V189.377Z" fill="#121212"/>
<path d="M473.571 189.377H568.286V284.066H473.571V189.377Z" fill="#5C87DB"/>
<path d="M378.857 3.78754H473.571V98.4761H378.857V3.78754Z" fill="#121212"/>
<path d="M378.857 98.4761H473.571V189.377H378.857V98.4761Z" fill="#5C87DB"/>
</svg>
