<svg width="895" height="1350" viewBox="0 0 895 1350" fill="none" xmlns="http://www.w3.org/2000/svg">
<path d="M-5 600H145V750H-5V600Z" fill="#5C87DB"/>
<path d="M145 600H295V750H145V600Z" fill="#262D3A"/>
<path d="M-5 450H145V600H-5V450Z" fill="#262D3A"/>
<path d="M145 450H295V600H145V450Z" fill="#5C87DB"/>
<path d="M295 600H445V750H295V600Z" fill="#121212"/>
<path d="M445 1200H595V1350H445V1200Z" fill="#121212"/>
<path d="M295 1050H445V1200H295V1050Z" fill="#262D3A"/>
<path d="M-5 900H145V1050H-5V900Z" fill="#262D3A"/>
<path d="M145 1050H295V1200H145V1050Z" fill="#5C87DB"/>
<path d="M0 1200H150V1350H0V1200Z" fill="#262D3A"/>
<path d="M295 900H445V1050H295V900Z" fill="#5C87DB"/>
<path d="M145 750H295V900H145V750Z" fill="#121212"/>
<path d="M-5 750H145V900H-5V750Z" fill="#5C87DB"/>
<path d="M445 600H595V750H445V600Z" fill="#5C87DB"/>
<path d="M595 750H745V900H595V750Z" fill="#262D3A"/>
<path d="M745 750H895V900H745V750Z" fill="#121212"/>
<path d="M145 300H295V450H145V300Z" fill="#262D3A"/>
<path d="M295 150H445V300H295V150Z" fill="#262D3A"/>
<path d="M295 450H445V600H295V450Z" fill="#121212"/>
<path d="M445 300H595V450H445V300Z" fill="#5C87DB"/>
<path d="M595 150H745V300H595V150Z" fill="#121212"/>
<path d="M145 150H295V300H145V150Z" fill="#121212"/>
<path d="M-5 300H145V450H-5V300Z" fill="#5C87DB"/>
<path d="M-5 0H145V150H-5V0Z" fill="#121212"/>
</svg>
