<svg width="38" height="38" viewBox="0 0 38 38" fill="none" xmlns="http://www.w3.org/2000/svg">
<path d="M19.0002 12.7516C15.5596 12.7516 12.7518 15.5594 12.7518 19C12.7518 22.4407 15.5596 25.2485 19.0002 25.2485C22.4408 25.2485 25.2487 22.4407 25.2487 19C25.2487 15.5594 22.4408 12.7516 19.0002 12.7516ZM37.7408 19C37.7408 16.4125 37.7643 13.8485 37.619 11.2657C37.4737 8.26565 36.7893 5.60315 34.5955 3.4094C32.3971 1.21096 29.7393 0.531277 26.7393 0.385965C24.1518 0.240652 21.5877 0.26409 19.0049 0.26409C16.4174 0.26409 13.8533 0.240652 11.2705 0.385965C8.27054 0.531277 5.60804 1.21565 3.41428 3.4094C1.21585 5.60784 0.53616 8.26565 0.390847 11.2657C0.245535 13.8532 0.268972 16.4172 0.268972 19C0.268972 21.5828 0.245535 24.1516 0.390847 26.7344C0.53616 29.7344 1.22053 32.3969 3.41428 34.5907C5.61272 36.7891 8.27054 37.4688 11.2705 37.6141C13.858 37.7594 16.4221 37.736 19.0049 37.736C21.5924 37.736 24.1565 37.7594 26.7393 37.6141C29.7393 37.4688 32.4018 36.7844 34.5955 34.5907C36.794 32.3922 37.4737 29.7344 37.619 26.7344C37.769 24.1516 37.7408 21.5875 37.7408 19ZM19.0002 28.6141C13.6799 28.6141 9.38616 24.3203 9.38616 19C9.38616 13.6797 13.6799 9.38596 19.0002 9.38596C24.3205 9.38596 28.6143 13.6797 28.6143 19C28.6143 24.3203 24.3205 28.6141 19.0002 28.6141ZM29.008 11.2375C27.7658 11.2375 26.7627 10.2344 26.7627 8.99221C26.7627 7.75003 27.7658 6.7469 29.008 6.7469C30.2502 6.7469 31.2533 7.75003 31.2533 8.99221C31.2537 9.28718 31.1959 9.57932 31.0832 9.8519C30.9705 10.1245 30.8051 10.3721 30.5965 10.5807C30.388 10.7893 30.1403 10.9547 29.8677 11.0674C29.5951 11.1801 29.303 11.2379 29.008 11.2375Z" fill="#444553"/>
</svg>
